<?xml version="1.0" encoding="UTF-8" standalone="no"?>
<!DOCTYPE svg PUBLIC "-//W3C//DTD SVG 1.1//EN" "http://www.w3.org/Graphics/SVG/1.1/DTD/svg11.dtd">
<svg version="1.1" xmlns="http://www.w3.org/2000/svg" xmlns:xlink="http://www.w3.org/1999/xlink" preserveAspectRatio="xMidYMid meet" viewBox="0 0 640 640" width="500" height="500"><defs><path d="M289.24 115.01C321.32 108.43 354.7 115.35 381.53 134.14C382.86 135.07 374.74 129.38 383.55 135.55C383.55 135.55 392.3 142.65 392.3 142.65C399.84 149.7 391.47 141.88 392.3 142.65C416.38 165.17 430.2 196.57 430.54 229.55C430.97 271.61 408.58 310.94 363.36 347.54C326.54 372.15 290.96 379.66 256.62 370.06C242.62 366.14 227.63 371.03 218.63 382.45C210.19 393.15 189.11 419.89 155.38 462.68C152.46 461.7 150.64 461.08 149.91 460.84C133.89 455.43 120.54 444.11 112.58 429.19C112.58 429.19 112.58 429.19 112.58 429.19C147.33 388.78 169.05 363.53 177.74 353.42C188.99 340.35 191.58 321.93 184.37 306.26C168.71 272.19 169.7 238.49 187.35 205.17C217.25 152.85 251.21 122.8 289.24 115.01Z" id="b1aISRSKJd"></path><path d="M419.08 464.83C405.1 464.83 393.74 453.63 393.74 439.83C393.74 426.03 405.1 414.83 419.08 414.83C433.06 414.83 444.41 426.03 444.41 439.83C444.41 453.63 433.06 464.83 419.08 464.83Z" id="cbkJXXies"></path><path d="M289.79 464.83C275.8 464.83 264.45 453.63 264.45 439.83C264.45 426.03 275.8 414.83 289.79 414.83C303.77 414.83 315.12 426.03 315.12 439.83C315.12 453.63 303.77 464.83 289.79 464.83Z" id="akRmGHY4r"></path><path d="M354.58 464.83C340.59 464.83 329.24 453.63 329.24 439.83C329.24 426.03 340.59 414.83 354.58 414.83C368.56 414.83 379.91 426.03 379.91 439.83C379.91 453.63 368.56 464.83 354.58 464.83Z" id="dN1cOg6Yj"></path><path d="M379.91 470.04L379.91 359.62" id="djVMzTWqU"></path><path d="M444.41 470.04L444.41 359.62" id="buPqsO7yH"></path><path d="M461.58 470.04L461.58 359.62" id="d4aebhWt5r"></path><path d="M315.12 470.04L315.12 413.42" id="a5Yhp80XJo"></path><path d="M502.08 466.73C486.37 466.73 476.74 454.23 476.74 441.73C476.74 429.23 487.33 416.73 502.08 416.73C516.83 416.73 527.33 427.15 527.41 441.73C527.5 441.73 489.41 441.73 476.74 441.73" id="aKNJMCnZ"></path><path d="M522.28 466.73L498.32 466.73" id="b26zh3DnT8"></path><path d="M222.61 377.27C182.32 428.51 159.94 456.98 155.46 462.68C152.49 461.68 150.64 461.06 149.89 460.81C133.93 455.46 120.6 444.21 112.65 429.36C112.64 429.35 112.61 429.3 112.58 429.24C117.29 423.75 140.81 396.34 183.14 347.01" id="gci9Mvk2Q"></path></defs><g><g><g><use xlink:href="#b1aISRSKJd" opacity="1" fill="#000000" fill-opacity="0"></use><g><use xlink:href="#b1aISRSKJd" opacity="1" fill-opacity="0" stroke="#cf0000" stroke-width="17" stroke-opacity="1"></use></g></g><g><use xlink:href="#cbkJXXies" opacity="1" fill="#000000" fill-opacity="0"></use><g><use xlink:href="#cbkJXXies" opacity="1" fill-opacity="0" stroke="#bfbfbf" stroke-width="10" stroke-opacity="1"></use></g></g><g><use xlink:href="#akRmGHY4r" opacity="1" fill="#000000" fill-opacity="0"></use><g><use xlink:href="#akRmGHY4r" opacity="1" fill-opacity="0" stroke="#bfbfbf" stroke-width="10" stroke-opacity="1"></use></g></g><g><use xlink:href="#dN1cOg6Yj" opacity="1" fill="#000000" fill-opacity="0"></use><g><use xlink:href="#dN1cOg6Yj" opacity="1" fill-opacity="0" stroke="#bfbfbf" stroke-width="10" stroke-opacity="1"></use></g></g><g><use xlink:href="#djVMzTWqU" opacity="1" fill="#000000" fill-opacity="0"></use><g><use xlink:href="#djVMzTWqU" opacity="1" fill-opacity="0" stroke="#bfbfbf" stroke-width="10" stroke-opacity="1"></use></g></g><g><use xlink:href="#buPqsO7yH" opacity="1" fill="#000000" fill-opacity="0"></use><g><use xlink:href="#buPqsO7yH" opacity="1" fill-opacity="0" stroke="#bfbfbf" stroke-width="10" stroke-opacity="1"></use></g></g><g><use xlink:href="#d4aebhWt5r" opacity="1" fill="#000000" fill-opacity="0"></use><g><use xlink:href="#d4aebhWt5r" opacity="1" fill-opacity="0" stroke="#bfbfbf" stroke-width="10" stroke-opacity="1"></use></g></g><g><use xlink:href="#a5Yhp80XJo" opacity="1" fill="#000000" fill-opacity="0"></use><g><use xlink:href="#a5Yhp80XJo" opacity="1" fill-opacity="0" stroke="#bfbfbf" stroke-width="10" stroke-opacity="1"></use></g></g><g><use xlink:href="#aKNJMCnZ" opacity="1" fill="#000000" fill-opacity="0"></use><g><use xlink:href="#aKNJMCnZ" opacity="1" fill-opacity="0" stroke="#bfbfbf" stroke-width="10" stroke-opacity="1"></use></g></g><g><use xlink:href="#b26zh3DnT8" opacity="1" fill="#000000" fill-opacity="0"></use><g><use xlink:href="#b26zh3DnT8" opacity="1" fill-opacity="0" stroke="#bfbfbf" stroke-width="10" stroke-opacity="1"></use></g></g><g><use xlink:href="#gci9Mvk2Q" opacity="1" fill="#000000" fill-opacity="0"></use><g><use xlink:href="#gci9Mvk2Q" opacity="1" fill-opacity="0" stroke="#f0c17c" stroke-width="17" stroke-opacity="1"></use></g></g></g></g></svg>