<?xml version="1.0" encoding="UTF-8" standalone="no"?>
<!DOCTYPE svg PUBLIC "-//W3C//DTD SVG 1.1//EN" "http://www.w3.org/Graphics/SVG/1.1/DTD/svg11.dtd">
<svg version="1.1" xmlns="http://www.w3.org/2000/svg" xmlns:xlink="http://www.w3.org/1999/xlink" preserveAspectRatio="xMidYMid meet" viewBox="79.453125 79.45352767147389 337.58606188984845 290.7652223285261" width="60" height="51.7"><defs><path d="M298.07 104.8C299.11 105.52 292.77 101.08 299.65 105.9C299.65 105.9 306.48 111.45 306.48 111.45C312.38 116.95 305.84 110.84 306.48 111.45C325.3 129.04 336.09 153.57 336.36 179.34C336.7 212.2 319.2 242.92 283.88 271.52C255.11 290.74 227.31 296.61 200.48 289.11C189.55 286.05 177.84 289.87 170.8 298.79C164.21 307.15 147.74 328.04 121.39 361.47C119.11 360.7 117.69 360.22 117.12 360.03C104.6 355.8 94.17 346.96 87.95 335.3C87.95 335.3 87.95 335.3 87.95 335.3C115.1 303.73 132.07 284.01 138.86 276.11C147.65 265.9 149.67 251.51 144.04 239.27C131.8 212.65 132.58 186.32 146.37 160.29C169.73 119.41 196.26 95.94 225.97 89.85C251.03 84.71 277.11 90.12 298.07 104.8Z" id="a34EbGslC5"></path><path d="M298.07 104.8C299.11 105.52 292.77 101.08 299.65 105.9C299.65 105.9 306.48 111.45 306.48 111.45C312.38 116.95 305.84 110.84 306.48 111.45C325.3 129.04 336.09 153.57 336.36 179.34C336.7 212.2 319.2 242.92 283.88 271.52C255.11 290.74 227.31 296.61 200.48 289.11C189.55 286.05 177.84 289.87 170.8 298.79C164.21 307.15 147.74 328.04 121.39 361.47C119.11 360.7 117.69 360.22 117.12 360.03C104.6 355.8 94.17 346.96 87.95 335.3C87.95 335.3 87.95 335.3 87.95 335.3C115.1 303.73 132.07 284.01 138.86 276.11C147.65 265.9 149.67 251.51 144.04 239.27C131.8 212.65 132.58 186.32 146.37 160.29C169.73 119.41 196.26 95.94 225.97 89.85C251.03 84.71 277.11 90.12 298.07 104.8Z" id="ayDNTOTlw"></path><path d="M307.61 343.62C307.61 332.84 316.48 324.09 327.41 324.09C338.33 324.09 347.2 332.84 347.2 343.62C347.2 354.4 338.33 363.15 327.41 363.15C316.48 363.15 307.61 354.4 307.61 343.62Z" id="g1a8JLIUY"></path><path d="M206.6 343.62C206.6 332.84 215.47 324.09 226.4 324.09C237.32 324.09 246.19 332.84 246.19 343.62C246.19 354.4 237.32 363.15 226.4 363.15C215.47 363.15 206.6 354.4 206.6 343.62Z" id="aQPWmr6zg"></path><path d="M206.6 343.62C206.6 332.84 215.47 324.09 226.4 324.09C237.32 324.09 246.19 332.84 246.19 343.62C246.19 354.4 237.32 363.15 226.4 363.15C215.47 363.15 206.6 354.4 206.6 343.62Z" id="b6xSokooyt"></path><path d="M257.22 343.62C257.22 332.84 266.09 324.09 277.02 324.09C287.94 324.09 296.8 332.84 296.8 343.62C296.8 354.4 287.94 363.15 277.02 363.15C266.09 363.15 257.22 354.4 257.22 343.62Z" id="aZKmLMN6K"></path><path d="M296.8 367.22L296.8 280.95" id="axsio9Vk"></path><path d="M347.2 367.22L347.2 280.95" id="f70ye70EXR"></path><path d="M360.61 367.22L360.61 280.95" id="j3BrPppR6d"></path><path d="M246.19 367.22L246.19 322.98" id="a3qqB9M8Dg"></path><path d="M392.25 364.63C379.98 364.63 372.45 354.87 372.45 345.1C372.45 335.34 380.73 325.57 392.25 325.57C403.77 325.57 411.98 333.71 412.04 345.1C412.11 345.1 382.35 345.1 372.45 345.1" id="a7m7pEk0A"></path><path d="M392.25 364.63C379.98 364.63 372.45 354.87 372.45 345.1C372.45 335.34 380.73 325.57 392.25 325.57C403.77 325.57 411.98 333.71 412.04 345.1C412.11 345.1 382.35 345.1 372.45 345.1" id="ebYEHQRaw"></path><path d="M408.03 364.63L389.31 364.63" id="a1ikoU5By5"></path><path d="M408.03 364.63L389.31 364.63" id="b1xVcRJcOk"></path><path d="M173.91 294.74C142.44 334.77 124.95 357.02 121.45 361.47C119.13 360.69 117.69 360.2 117.1 360.01C104.63 355.83 94.22 347.04 88.01 335.44C88 335.43 87.98 335.39 87.95 335.34C91.63 331.05 110.01 309.64 143.08 271.1" id="a2Ce1oujo2"></path><path d="M173.91 294.74C142.44 334.77 124.95 357.02 121.45 361.47C119.13 360.69 117.69 360.2 117.1 360.01C104.63 355.83 94.22 347.04 88.01 335.44C88 335.43 87.98 335.39 87.95 335.34C91.63 331.05 110.01 309.64 143.08 271.1" id="bVrKXLdxD"></path></defs><g><g><use xlink:href="#a34EbGslC5" opacity="1" fill="#000000" fill-opacity="0"></use><g><use xlink:href="#a34EbGslC5" opacity="1" fill-opacity="0" stroke="#000000" stroke-width="1" stroke-opacity="0"></use></g></g><g><use xlink:href="#ayDNTOTlw" opacity="1" fill="#000000" fill-opacity="0"></use><g><use xlink:href="#ayDNTOTlw" opacity="1" fill-opacity="0" stroke="#cf0000" stroke-width="17" stroke-opacity="1"></use></g></g><g><use xlink:href="#g1a8JLIUY" opacity="1" fill="#000000" fill-opacity="0"></use><g><use xlink:href="#g1a8JLIUY" opacity="1" fill-opacity="0" stroke="#000000" stroke-width="1" stroke-opacity="0"></use></g></g><g><use xlink:href="#aQPWmr6zg" opacity="1" fill="#000000" fill-opacity="0"></use><g><use xlink:href="#aQPWmr6zg" opacity="1" fill-opacity="0" stroke="#000000" stroke-width="1" stroke-opacity="0"></use></g></g><g><use xlink:href="#b6xSokooyt" opacity="1" fill="#000000" fill-opacity="0"></use><g><use xlink:href="#b6xSokooyt" opacity="1" fill-opacity="0" stroke="#bfbfbf" stroke-width="10" stroke-opacity="1"></use></g></g><g><use xlink:href="#aZKmLMN6K" opacity="1" fill="#000000" fill-opacity="0"></use><g><use xlink:href="#aZKmLMN6K" opacity="1" fill-opacity="0" stroke="#000000" stroke-width="1" stroke-opacity="0"></use></g></g><g><use xlink:href="#axsio9Vk" opacity="1" fill="#000000" fill-opacity="0"></use><g><use xlink:href="#axsio9Vk" opacity="1" fill-opacity="0" stroke="#000000" stroke-width="1" stroke-opacity="0"></use></g></g><g><use xlink:href="#f70ye70EXR" opacity="1" fill="#000000" fill-opacity="0"></use><g><use xlink:href="#f70ye70EXR" opacity="1" fill-opacity="0" stroke="#000000" stroke-width="1" stroke-opacity="0"></use></g></g><g><use xlink:href="#j3BrPppR6d" opacity="1" fill="#000000" fill-opacity="0"></use><g><use xlink:href="#j3BrPppR6d" opacity="1" fill-opacity="0" stroke="#000000" stroke-width="1" stroke-opacity="0"></use></g></g><g><use xlink:href="#a3qqB9M8Dg" opacity="1" fill="#000000" fill-opacity="0"></use><g><use xlink:href="#a3qqB9M8Dg" opacity="1" fill-opacity="0" stroke="#000000" stroke-width="1" stroke-opacity="0"></use></g></g><g><use xlink:href="#a7m7pEk0A" opacity="1" fill="#000000" fill-opacity="0"></use><g><use xlink:href="#a7m7pEk0A" opacity="1" fill-opacity="0" stroke="#000000" stroke-width="1" stroke-opacity="0"></use></g></g><g><use xlink:href="#ebYEHQRaw" opacity="1" fill="#000000" fill-opacity="0"></use><g><use xlink:href="#ebYEHQRaw" opacity="1" fill-opacity="0" stroke="#bfbfbf" stroke-width="10" stroke-opacity="0"></use></g></g><g><use xlink:href="#a1ikoU5By5" opacity="1" fill="#000000" fill-opacity="0"></use><g><use xlink:href="#a1ikoU5By5" opacity="1" fill-opacity="0" stroke="#000000" stroke-width="1" stroke-opacity="0"></use></g></g><g><use xlink:href="#b1xVcRJcOk" opacity="1" fill="#000000" fill-opacity="0"></use><g><use xlink:href="#b1xVcRJcOk" opacity="1" fill-opacity="0" stroke="#bfbfbf" stroke-width="10" stroke-opacity="0"></use></g></g><g><use xlink:href="#a2Ce1oujo2" opacity="1" fill="#000000" fill-opacity="0"></use><g><use xlink:href="#a2Ce1oujo2" opacity="1" fill-opacity="0" stroke="#000000" stroke-width="1" stroke-opacity="0"></use></g></g><g><use xlink:href="#bVrKXLdxD" opacity="1" fill="#000000" fill-opacity="0"></use><g><use xlink:href="#bVrKXLdxD" opacity="1" fill-opacity="0" stroke="#f0c17c" stroke-width="17" stroke-opacity="1"></use></g></g></g></svg>